<?xml version="1.0" standalone="no"?>
<!DOCTYPE svg PUBLIC "-//W3C//DTD SVG 20010904//EN"
 "http://www.w3.org/TR/2001/REC-SVG-20010904/DTD/svg10.dtd">
<svg version="1.0" xmlns="http://www.w3.org/2000/svg"
 width="1000.000000pt" height="1000.000000pt" viewBox="0 0 1000.000000 1000.000000"
 preserveAspectRatio="xMidYMid meet">
<metadata>
Created by potrace 1.13, written by Peter Selinger 2001-2015
</metadata>
<g transform="translate(0.000000,1000.000000) scale(0.100000,-0.100000)"
fill="#000000" stroke="none">
<path d="M1234 8985 c-175 -38 -294 -154 -324 -316 -7 -37 -9 -1135 -7 -3380
3 -3030 5 -3331 20 -3402 30 -142 49 -201 99 -306 43 -90 62 -116 132 -185
115 -115 229 -172 436 -219 l95 -21 2059 -3 c2291 -4 2128 -9 2236 65 139 95
210 280 182 473 -23 157 -111 279 -240 331 l-57 23 -1880 5 c-1826 5 -1881 6
-1930 24 -65 26 -145 106 -171 171 -19 49 -19 121 -24 3250 l-5 3200 -23 57
c-48 119 -157 201 -307 233 -85 18 -209 18 -291 0z"/>
<path d="M5493 4150 c-37 -22 -63 -67 -63 -107 0 -60 64 -123 125 -123 62 0
125 63 125 125 0 42 -20 76 -59 102 -42 28 -86 29 -128 3z"/>
<path d="M2620 3752 c-82 -22 -145 -58 -198 -115 -173 -188 -186 -577 -26
-781 77 -98 189 -153 329 -163 148 -10 268 29 354 115 47 47 101 135 101 165
0 21 -43 56 -77 63 -41 8 -69 -9 -93 -57 -53 -103 -149 -155 -269 -147 -145
11 -237 91 -277 243 -8 28 -14 67 -14 88 l0 37 335 0 c223 0 342 4 358 11 48
22 60 95 32 204 -33 130 -113 243 -210 301 -91 53 -226 67 -345 36z m247 -146
c79 -37 153 -154 153 -243 l0 -23 -280 0 -280 0 0 25 c0 42 39 130 77 175 77
89 218 118 330 66z"/>
<path d="M3680 3752 c-82 -22 -145 -58 -198 -115 -173 -188 -186 -577 -26
-781 77 -98 189 -153 329 -163 148 -10 268 29 354 115 47 47 101 135 101 165
0 21 -43 56 -77 63 -41 8 -69 -9 -93 -57 -53 -103 -149 -155 -269 -147 -145
11 -237 91 -277 243 -8 28 -14 67 -14 88 l0 37 335 0 c223 0 342 4 358 11 48
22 60 95 32 204 -33 130 -113 243 -210 301 -91 53 -226 67 -345 36z m247 -146
c79 -37 153 -154 153 -243 l0 -23 -280 0 -280 0 0 25 c0 42 39 130 77 175 77
89 218 118 330 66z"/>
<path d="M6313 3761 c-91 -23 -166 -77 -228 -164 l-20 -27 3 68 c3 65 2 71
-24 91 -37 29 -88 28 -119 -4 l-25 -24 0 -474 c0 -453 1 -476 19 -498 15 -19
29 -24 65 -24 83 0 80 -9 86 353 5 311 5 318 29 367 14 28 50 76 81 107 46 45
69 60 115 73 117 34 215 3 257 -83 22 -46 23 -56 28 -410 l5 -364 24 -19 c31
-25 82 -24 115 2 l26 20 0 367 c0 377 -4 423 -43 498 -47 91 -147 145 -276
150 -47 2 -100 -1 -118 -5z"/>
<path d="M7293 3755 c-78 -21 -130 -51 -184 -105 -138 -138 -185 -413 -109
-636 28 -81 86 -161 152 -210 83 -61 143 -79 258 -79 81 0 103 4 150 26 65 30
121 76 151 125 12 19 22 34 23 32 1 -2 -1 -53 -5 -114 -8 -139 -30 -211 -81
-268 -54 -62 -108 -81 -228 -81 -82 0 -103 4 -150 26 -30 14 -76 45 -102 68
-56 50 -88 53 -129 12 -41 -41 -37 -70 13 -121 90 -89 247 -138 413 -127 245
17 375 135 414 378 7 38 11 261 11 547 0 469 -1 483 -20 502 -27 27 -80 26
-115 -2 -26 -20 -27 -25 -23 -91 3 -51 1 -65 -7 -52 -54 91 -118 143 -209 170
-61 19 -154 18 -223 0z m226 -141 c71 -21 140 -85 177 -167 28 -59 29 -69 29
-202 0 -136 -1 -142 -31 -205 -41 -86 -74 -123 -136 -154 -59 -29 -150 -35
-220 -14 -59 17 -130 86 -161 155 -86 193 -36 470 100 554 81 51 152 60 242
33z"/>
<path d="M8450 3752 c-219 -57 -343 -244 -343 -517 0 -290 125 -476 355 -530
225 -53 437 43 529 238 79 170 79 414 -1 582 -92 192 -315 286 -540 227z m219
-138 c133 -39 210 -179 211 -381 0 -250 -108 -396 -295 -397 -90 -1 -138 16
-196 71 -146 136 -156 470 -19 627 72 81 189 113 299 80z"/>
<path d="M4399 3721 c-16 -16 -29 -36 -29 -45 0 -8 82 -220 181 -471 165 -416
184 -458 213 -476 61 -37 141 -17 169 43 24 52 357 896 357 906 0 23 -44 62
-76 68 -48 9 -79 -10 -100 -60 -63 -157 -235 -637 -254 -708 -13 -49 -27 -88
-32 -88 -4 0 -8 7 -8 15 0 50 -273 798 -302 827 -29 29 -84 24 -119 -11z"/>
<path d="M5495 3725 l-25 -24 0 -471 0 -471 25 -24 c16 -17 35 -25 60 -25 25
0 44 8 60 25 l25 24 0 471 0 471 -25 24 c-33 34 -87 34 -120 0z"/>
</g>
</svg>
